# xmcd
#
# Track frame offsets:
#	150
#	12035
#	27876
#	40291
#	53710
#	72944
#	86036
#	98954
#	116476
#	130397
#	146282
#	159260
#	172505
#	190020
#	204177
#	218741
#
# Disc length: 3080 seconds
#
# Revision: 1
# Processed by: cddbd v1.5.2PL0 Copyright (c) Steve Scherf et al.
# Submitted via: audiograbber 1.83.01
#
DISCID=c70c0610
DTITLE=Musikkapelle Hackenbuch - Egerländer Freunde
DYEAR=2016
DGENRE=Blasmusik
TTITLE0=Friedensmarsch
TTITLE1=Böhmisch soll es klingen
TTITLE2=Mondschein an der Eger
TTITLE3=Moorböhmische Polka
TTITLE4=Aus Liebe zu Dir
TTITLE5=Am Kreuzersteg
TTITLE6=Wir sind Kinder von der Eger
TTITLE7=Halt mich fest
TTITLE8=Emmyhüttemarsch
TTITLE9=Egerländer Freunde
TTITLE10=Vergiss nie die Heimat
TTITLE11=Polka im Herzen
TTITLE12=Everything I Do
TTITLE13=Fuchsgraben Polka
TTITLE14=Mein schönes Hackenbuch
TTITLE15=Wenn es Abend wird
EXTD=Böhmische Blasmusik mit Gesang.
EXTT0=
EXTT1=
EXTT2=
EXTT3=
EXTT4=
EXTT5=
EXTT6=
EXTT7=
EXTT8=
EXTT9=
EXTT10=
EXTT11=
EXTT12=
EXTT13=
EXTT14=
EXTT15=
PLAYORDER=
